<svg xmlns="http://www.w3.org/2000/svg" xmlns:xlink="http://www.w3.org/1999/xlink" version="1.1" x="0px" y="0px" viewBox="0 0 512 640" style="enable-background:new 0 0 512 512;" xml:space="preserve"><path d="M389.719,145.742c-5.33-16.758-13.935-32.335-25.677-46.402c9.531-24.894,16.861-55.35,1.411-66.327  c-15.582-11.278-42.799,6.021-63.885,23.549c-13.459-4.57-27.639-7.128-42.297-7.408c-0.044,0-1.553,0-1.598,0  c-16.352,0-32.197,2.939-47.251,8.505c-14.587-11.987-27.676-20.198-38.595-24.251C168.606,23.349,159.272,16,148.148,16  c-13.759,0-24.959,11.192-24.959,24.959c0,9.849,5.781,18.298,14.081,22.357c1.16,10.49,4.815,23.657,11.002,39.397  c-10.779,13.741-18.752,29.174-23.745,46.003c-37.278,10.308-56.142,23.411-55.783,38.962c0.186,15.297,18.732,27.615,54.817,36.704  c2.849,10.663,6.868,21.139,12.543,31.404l10.955,16.944c-12.492,33.75-12.724,55.409-0.509,64.161  c3.373,2.434,7.397,3.647,12.043,3.647c5.537,0,11.975-1.763,19.243-5.204c0.117,0.465,0.253,0.829,0.374,1.313  c1.45,5.918,2.264,10.771,2.515,14.987c0.725,8.818,0.843,12.561,0.695,21.112c-0.112,10.598,4.793,20.076,12.743,26.107  c-0.022,0.209-0.123,0.39-0.123,0.605v21.651c-2.914-0.194-5.585,1.631-6.273,4.543c-0.769,3.262,1.258,6.524,4.512,7.286  c0.591,0.14,1.17,0.167,1.761,0.3v18.197c-2.914-0.182-5.585,1.627-6.273,4.539c-0.769,3.255,1.258,6.524,4.512,7.286  c0.591,0.14,1.171,0.167,1.761,0.3v3.828c0,11.555,9.409,20.957,20.964,20.957h11.967c-0.146,0.521-0.324,1.031-0.324,1.598  c0,3.344,2.722,6.058,6.066,6.058h47.802c3.344,0,6.066-2.715,6.066-6.058c0-0.567-0.178-1.077-0.324-1.598h11.701  c11.555,0,20.964-9.402,20.964-20.957V449.62c1.045-0.454,1.776-0.786,1.997-0.89c3.033-1.413,4.35-5.023,2.929-8.056  c-0.953-2.014-2.87-3.173-4.927-3.373v-18.011c1.045-0.454,1.776-0.786,1.997-0.89c3.033-1.413,4.35-5.023,2.929-8.048  c-0.934-2.021-2.861-3.175-4.927-3.372v-6.626c9.067-5.9,14.976-16.062,14.854-27.647c-0.148-8.537-0.015-12.28,0.71-21.038  c0.429-4.786,1.42-9.979,2.5-14.994c0.101-0.383,0.221-0.747,0.322-1.129c6.917,2.943,12.559,4.088,17.106,4.088  c5.578,0,9.543-1.672,12.28-3.684c11.737-8.61,11.679-29.221,0.064-61.074l12.571-19.484c6.168-11.318,10.544-23.356,13.459-35.735  c33.562-10.039,50.641-22.61,50.469-37.432C443.031,163.404,414.739,152.1,389.719,145.742z M375.737,142.444  c-8.797-1.835-18.587-3.447-29.088-4.87c4.516-8.692,8.53-17.153,12.077-25.393C365.883,121.638,371.588,131.747,375.737,142.444z   M306.748,67.981c29.294-24.973,46.145-29.123,51.648-25.121c5.43,3.861,6.909,20.653-6.835,55.243  c-0.089,0.229-0.163,0.473-0.222,0.74c-4.662,11.79-10.636,24.326-17.519,37.233c-17.25-1.776-34.593-2.859-51.931-3.195  c-6.34-8.032-12.318-15.238-18.153-21.992C278.489,94.169,293.286,79.343,306.748,67.981z M289.12,207.58  c-2.516-0.855-5.165-1.423-7.967-1.423c-13.774,0-24.974,11.192-24.974,24.959c0,5.006,1.514,9.652,4.061,13.563  c-1.326,1.635-2.704,3.25-4.077,4.86c-5.55-6.338-11.465-13.524-18.3-22.248c-4.29-5.348-8.433-10.933-12.694-16.651l-1.553-2.086  c-6.217-8.473-11.499-16.109-16.353-23.475c5.211-7.823,10.56-15.717,16.249-23.647c4.483-6.28,9.114-12.405,13.833-18.338  c6.09-8.008,12.257-15.617,18.396-22.912c5.887,6.87,11.904,14.135,18.369,22.38c0.222,0.288,0.488,0.555,0.769,0.799  c4.453,5.74,9.025,11.629,13.508,17.828c5.789,7.899,11.236,15.777,16.473,23.593C299.897,192.231,294.722,199.789,289.12,207.58z   M293.98,231.115c0,7.079-5.755,12.842-12.827,12.842c-7.087,0-12.842-5.763-12.842-12.842c0-7.079,5.755-12.842,12.842-12.842  C288.225,218.273,293.98,224.036,293.98,231.115z M200.141,196.216c4.155,6.166,8.584,12.542,13.726,19.542l1.583,2.116  c1.733,2.333,3.446,4.493,5.162,6.771c-7.154-0.252-14.527-0.646-22.163-1.212c-0.744-5.242-2.973-10.135-6.592-13.847  C194.495,205.178,197.309,200.702,200.141,196.216z M200.096,174.105c-5.124-7.85-10.137-16.037-15.031-24.555  c10.622-1.339,22.102-2.431,34.709-3.279c-2.037,2.719-4.124,5.315-6.116,8.104C208.918,160.98,204.52,167.545,200.096,174.105z   M312.005,195.691c5.023,7.825,9.991,15.967,14.921,24.453c-7.516,0.928-15.013,1.78-22.433,2.377  c-1.166-3.154-2.92-6.003-5.176-8.412C303.78,207.891,307.889,201.792,312.005,195.691z M311.907,173.717  c-4.466-6.54-8.917-13.088-13.726-19.653c-2.104-2.922-4.41-5.828-6.59-8.697c11.908,0.427,23.861,1.186,35.834,2.314  C322.661,156.146,317.489,164.829,311.907,173.717z M259.035,61.272c10.944,0.212,21.616,1.755,31.843,4.583  c-11.361,10.249-23.156,22.273-35.231,35.897c-11.935-13.243-23.589-25.065-34.593-34.958  C232.871,63.169,245.367,61.272,259.035,61.272z M172.396,46.681c19.378,9.106,46.605,32.335,75.263,64.277  c-6.097,7.201-12.205,14.748-18.215,22.584c-19.108,1.045-35.809,2.575-50.79,4.626c-6.85-12.564-12.953-24.955-17.944-36.773  c-5.777-14.239-9.386-26.114-10.946-35.64C160.826,65.032,169.915,57.17,172.396,46.681z M148.148,53.801  c-7.072,0-12.827-5.763-12.827-12.842s5.755-12.842,12.827-12.842c7.087,0,12.842,5.763,12.842,12.842  S155.235,53.801,148.148,53.801z M153.854,115.516c3.662,8.072,7.696,16.269,12.132,24.591c-9.393,1.455-18.606,3.227-27.65,5.287  C142.159,134.731,147.354,124.748,153.854,115.516z M129.847,213.517c-36.025-8.581-48.897-19.359-48.985-26.061  c-0.148-6.754,12.812-18.131,49.858-27.925c13.253-3.425,27.172-6.099,41.389-8.146c6.674,11.852,13.604,23.166,20.665,33.707  c-3.957,6.141-7.682,12.196-11.271,18.194c-2.457-0.793-5.002-1.294-7.612-1.294c-10.428,0-19.047,6.475-22.625,15.623  C144.133,216.471,136.963,215.233,129.847,213.517z M161.412,225.294c0.006-0.051,0.032-0.097,0.037-0.149  c0.607-6.288,5.947-11.037,12.442-11.037c2.412,0,4.749,0.673,6.88,2.019c3.699,2.227,5.992,6.325,5.992,10.711l0.148-0.037  c-0.222,0.555-0.37,1.132-0.429,1.731c-0.784,8.248-10.312,13.729-17.872,9.949c-4.527-2.153-7.442-6.724-7.59-11.606  c0.172-0.43,0.256-0.885,0.333-1.343c0.008-0.049,0.059-0.073,0.067-0.122C161.425,225.371,161.407,225.335,161.412,225.294z   M146.506,249.572c-3.973-7.197-6.927-14.717-9.384-22.339c4.11,0.841,8.206,1.698,12.313,2.353  c0.748,6.489,3.908,12.404,8.913,16.499c-2.055,4.382-3.996,8.674-5.778,12.853L146.506,249.572z M178.596,321.274  c-11.481,6.606-20.831,8.766-24.959,5.777c-5.203-3.723-6.819-19.625,5.45-52.019c0.329-0.589,0.595-1.199,0.714-1.857  c2.684-6.886,5.909-14.246,9.482-21.853c1.493,0.287,3.005,0.512,4.609,0.512c10.725,0,19.532-6.822,22.963-16.368  c11.609,0.876,22.624,1.413,33.287,1.582c6.671,8.453,12.558,15.547,18.054,21.768C222.43,288.153,197.839,310.294,178.596,321.274z   M306.792,467.387c0,4.875-3.965,8.84-8.832,8.84h-82.954c-4.867,0-8.832-3.965-8.832-8.84v-1.766  c8.66,1.248,17.241,2.055,25.521,2.055c31.557,0,59.211-7.754,75.098-13.353V467.387z M306.792,441.38  c-17.439,6.483-58.042,18.827-100.619,12.242v-18.323c8.654,1.248,17.228,2.056,25.506,2.056c31.567,0,59.225-7.758,75.113-13.359  V441.38z M306.792,411.036c-17.458,6.464-58.118,18.795-100.619,12.257v-18.81c1.504,0.375,3.008,0.755,4.601,0.929l94.02,0.111  c0.69-0.076,1.323-0.294,1.997-0.411V411.036z M325.167,333.946c-1.08,5.052-2.249,10.985-2.752,16.688  c-0.769,9.173-0.917,13.337-0.769,22.244c0.118,10.586-7.693,19.44-17.502,20.565l-92.689-0.111  c-10.327-1.147-18.02-9.942-17.902-20.417c0.148-8.906,0-13.071-0.74-22.133c-0.281-4.816-1.213-10.378-2.944-17.45  c-0.344-1.381-0.804-2.706-1.181-4.07c19.433-12.072,43.106-33.554,67.635-61.349c25.655,28.746,50.151,50.416,70.015,61.952  C325.959,331.227,325.56,332.453,325.167,333.946z M359.535,326.179c-3.876,2.885-12.605,1.161-23.302-4.564  c-19.266-10.129-45.283-32.964-71.914-62.946c1.646-1.903,3.266-3.835,4.86-5.787c3.572,1.97,7.613,3.192,11.974,3.192  c12.578,0,22.911-9.385,24.61-21.508c9.179-0.746,18.446-1.707,27.722-2.937c8.511,15.613,15.614,30.665,20.601,43.802  c0.017,0.075,0.067,0.139,0.085,0.213c0.075,0.197,0.172,0.414,0.246,0.61C366.149,307.219,364.743,322.354,359.535,326.179z   M368.915,249.209l-7.757,12.012c-4.188-9.923-9.17-20.383-15.068-31.448c11.53-1.795,22.602-4.022,33.127-6.618  C376.595,232.219,373.334,241.073,368.915,249.209z M386.166,209.034c-13.942,3.923-29.862,7.113-46.148,9.476  c-6.831-11.96-13.649-23.126-20.655-33.827c7.83-12.269,14.942-24.225,21.253-35.686c16.348,2.074,30.855,4.636,43.036,7.678  c34.93,8.411,47.402,19.1,47.476,25.698C431.216,189.061,419.439,199.58,386.166,209.034z"/><text x="0" y="527" fill="#000000" font-size="5px" font-weight="bold" font-family="'Helvetica Neue', Helvetica, Arial-Unicode, Arial, Sans-serif">Created by Shakeel Ch.</text><text x="0" y="532" fill="#000000" font-size="5px" font-weight="bold" font-family="'Helvetica Neue', Helvetica, Arial-Unicode, Arial, Sans-serif">from the Noun Project</text></svg>