<svg xmlns="http://www.w3.org/2000/svg" xmlns:xlink="http://www.w3.org/1999/xlink" version="1.1" x="0px" y="0px" viewBox="0 0 64 80" style="enable-background:new 0 0 64 64;" xml:space="preserve"><path d="M32,18.5c-5.62,0-10.19,4.57-10.19,10.19c0,3.33,1.63,6.45,4.36,8.36c0.11,0.24,0.23,0.47,0.33,0.7  c0.83,1.72,1.49,3.08,1.49,6.09c0,0.21,0.17,0.38,0.38,0.38h7.25c0.21,0,0.38-0.17,0.38-0.38c0-3.01,0.66-4.37,1.49-6.09  c0.11-0.22,0.22-0.46,0.33-0.7c2.73-1.91,4.36-5.02,4.36-8.36C42.19,23.07,37.62,18.5,32,18.5z M37.32,36.48  c-0.06,0.04-0.1,0.09-0.13,0.15c-0.13,0.27-0.25,0.53-0.37,0.78c-0.81,1.67-1.51,3.11-1.56,6.04h-2.88V33.22l3.91-3.74  c0.15-0.14,0.15-0.38,0.01-0.53c-0.14-0.15-0.38-0.16-0.53-0.01L32,32.54l-3.77-3.6c-0.15-0.14-0.39-0.14-0.53,0.01  c-0.14,0.15-0.14,0.39,0.01,0.53l3.91,3.74v10.22h-2.88c-0.06-2.93-0.75-4.37-1.56-6.04c-0.12-0.25-0.25-0.51-0.37-0.78  c-0.03-0.06-0.07-0.11-0.13-0.15c-2.58-1.76-4.12-4.68-4.12-7.79c0-5.2,4.23-9.44,9.44-9.44s9.44,4.23,9.44,9.44  C41.44,31.8,39.9,34.71,37.32,36.48z"/><path d="M35.69,44.75h-7.39c-0.21,0-0.38,0.17-0.38,0.38s0.17,0.38,0.38,0.38h7.39c0.21,0,0.38-0.17,0.38-0.38  S35.9,44.75,35.69,44.75z"/><path d="M12.41,31.63H5.5c-0.21,0-0.38,0.17-0.38,0.38s0.17,0.38,0.38,0.38h6.91c0.21,0,0.38-0.17,0.38-0.38  S12.62,31.63,12.41,31.63z"/><path d="M58.5,31.63h-6.91c-0.21,0-0.38,0.17-0.38,0.38s0.17,0.38,0.38,0.38h6.91c0.21,0,0.38-0.17,0.38-0.38  S58.71,31.63,58.5,31.63z"/><path d="M17.88,45.59L13,50.47c-0.15,0.15-0.15,0.38,0,0.53c0.07,0.07,0.17,0.11,0.27,0.11s0.19-0.04,0.27-0.11l4.88-4.88  c0.15-0.15,0.15-0.38,0-0.53S18.03,45.44,17.88,45.59z"/><path d="M50.47,13l-4.88,4.88c-0.15,0.15-0.15,0.38,0,0.53c0.07,0.07,0.17,0.11,0.27,0.11s0.19-0.04,0.27-0.11L51,13.53  c0.15-0.15,0.15-0.38,0-0.53S50.62,12.85,50.47,13z"/><path d="M32,51.22c-0.21,0-0.38,0.17-0.38,0.38v6.91c0,0.21,0.17,0.38,0.38,0.38s0.38-0.17,0.38-0.38v-6.91  C32.38,51.38,32.21,51.22,32,51.22z"/><path d="M31.63,5.5v6.91c0,0.21,0.17,0.38,0.38,0.38s0.38-0.17,0.38-0.38V5.5c0-0.21-0.17-0.38-0.38-0.38S31.63,5.29,31.63,5.5z"/><path d="M46.12,45.59c-0.15-0.15-0.38-0.15-0.53,0s-0.15,0.38,0,0.53L50.47,51c0.07,0.07,0.17,0.11,0.27,0.11S50.93,51.08,51,51  c0.15-0.15,0.15-0.38,0-0.53L46.12,45.59z"/><path d="M13.53,13c-0.15-0.15-0.38-0.15-0.53,0s-0.15,0.38,0,0.53l4.88,4.88c0.07,0.07,0.17,0.11,0.27,0.11s0.19-0.04,0.27-0.11  c0.15-0.15,0.15-0.38,0-0.53L13.53,13z"/><text x="0" y="79" fill="#000000" font-size="5px" font-weight="bold" font-family="'Helvetica Neue', Helvetica, Arial-Unicode, Arial, Sans-serif">Created by newstudiodesign10</text><text x="0" y="84" fill="#000000" font-size="5px" font-weight="bold" font-family="'Helvetica Neue', Helvetica, Arial-Unicode, Arial, Sans-serif">from the Noun Project</text></svg>