<svg xmlns="http://www.w3.org/2000/svg" version="1.1" viewBox="-5.0 -10.0 110.0 135.0">
 <path d="m48.684 14.789v-3.4727c0-0.72656 0.58984-1.3164 1.3164-1.3164s1.3164 0.58984 1.3164 1.3164v3.4727c0 0.72656-0.58984 1.3164-1.3164 1.3164s-1.3164-0.58984-1.3164-1.3164zm-13.84 4.4141c0.24219 0.42188 0.6875 0.66016 1.1406 0.66016 0.22266 0 0.44922-0.058593 0.65625-0.17578 0.62891-0.36328 0.84766-1.168 0.48438-1.8008l-1.7344-3.0117c-0.36328-0.62891-1.168-0.84766-1.8008-0.48438-0.62891 0.36328-0.84766 1.168-0.48438 1.8008l1.7344 3.0117zm-12.789 9.0078 3.0117 1.7422c0.20703 0.12109 0.43359 0.17578 0.65625 0.17578 0.45312 0 0.89844-0.23438 1.1406-0.65625 0.36328-0.62891 0.14844-1.4336-0.48047-1.8008l-3.0117-1.7422c-0.62891-0.36328-1.4336-0.14844-1.8008 0.48047-0.36328 0.62891-0.14844 1.4336 0.48047 1.8008zm1.2266 14.617c0-0.72656-0.58984-1.3164-1.3164-1.3164h-3.4766c-0.72656 0-1.3164 0.58984-1.3164 1.3164s0.58984 1.3164 1.3164 1.3164h3.4766c0.72656 0 1.3164-0.58984 1.3164-1.3164zm1.7812 12.875-3.0117 1.7344c-0.62891 0.36328-0.84766 1.168-0.48438 1.8008 0.24219 0.42188 0.6875 0.66016 1.1406 0.66016 0.22266 0 0.44922-0.058594 0.65625-0.17578l3.0117-1.7344c0.62891-0.36328 0.84766-1.168 0.48438-1.8008-0.36328-0.62891-1.168-0.84766-1.8008-0.48438zm47.988-12.875c0 4.875-1.5 9.5312-4.3398 13.469-1.0156 1.4062-2.0469 2.5586-3.043 3.6758-2.1641 2.418-3.9062 4.3711-4.625 7.8711 0.98828 0.62891 1.6367 1.6641 1.6367 2.8359v3.2617h0.52734c0.72656 0 1.3164 0.58984 1.3164 1.3164 0 0.72656-0.58984 1.3164-1.3164 1.3164h-0.52734v3.2656c0 1.7656-1.5977 3.2734-3.5625 3.4453l-0.80469 2.7969c-0.98438 3.4102-3.0742 3.9219-4.2344 3.9219h-8.1562c-1.1602 0-3.2539-0.51172-4.2305-3.9219l-0.80859-2.7969c-1.9688-0.17578-3.5664-1.6797-3.5664-3.4453v-3.2656h-0.51953c-0.72656 0-1.3164-0.58984-1.3164-1.3164 0-0.72656 0.58984-1.3164 1.3164-1.3164h0.51953v-3.2617c0-1.1719 0.64844-2.207 1.6367-2.8359-0.71484-3.5-2.4609-5.4531-4.6289-7.875-0.99609-1.1133-2.0273-2.2656-3.043-3.6719-2.8398-3.9375-4.3398-8.5938-4.3398-13.469 0-12.711 10.34-23.051 23.051-23.051 12.711 0 23.051 10.34 23.051 23.051zm-17.27 42.523 0.58984-2.0508h-12.738l0.59375 2.0508c0.38281 1.3398 0.95313 2.0156 1.6992 2.0156h8.1562c0.74219 0 1.3164-0.67969 1.7031-2.0156zm4.2656-8.7812h-20.09v3.2656c0 0.37109 0.60547 0.82812 1.3086 0.82812h17.469c0.70703 0 1.3086-0.45703 1.3086-0.82812v-3.2656zm0-2.6328v-3.2617c0-0.39062-0.49219-0.82812-1.2031-0.82812h-17.684c-0.71094 0-1.2031 0.4375-1.2031 0.82812v3.2617zm10.371-31.109c0-11.258-9.1602-20.418-20.418-20.418s-20.418 9.1602-20.418 20.418c0 4.3164 1.3281 8.4414 3.8438 11.926 0.93359 1.293 1.918 2.3906 2.8672 3.457 2.2305 2.4922 4.3477 4.8633 5.2227 9.0039h16.965c0.875-4.1367 2.9922-6.5039 5.2227-8.9961 0.95312-1.0664 1.9375-2.168 2.8711-3.4609 2.5156-3.4844 3.8438-7.6094 3.8438-11.926zm-7.0586-23.145c0.20703 0.12109 0.43359 0.17578 0.65625 0.17578 0.45312 0 0.89844-0.23438 1.1406-0.65625l1.7422-3.0117c0.36328-0.62891 0.14844-1.4336-0.48047-1.8008-0.62891-0.36328-1.4336-0.14844-1.8008 0.48047l-1.7422 3.0117c-0.36328 0.62891-0.14844 1.4336 0.48047 1.8008zm10.926 10.445c0.22266 0 0.44922-0.058594 0.65625-0.17578l3.0117-1.7422c0.62891-0.36328 0.84375-1.1719 0.48047-1.8008-0.36328-0.62891-1.1719-0.84375-1.8008-0.48047l-3.0117 1.7422c-0.62891 0.36328-0.84375 1.1719-0.48047 1.8008 0.24219 0.42188 0.6875 0.65625 1.1406 0.65625zm7.2266 11.383h-3.4766c-0.72656 0-1.3164 0.58984-1.3164 1.3164s0.58984 1.3164 1.3164 1.3164h3.4766c0.72656 0 1.3164-0.58984 1.3164-1.3164s-0.58984-1.3164-1.3164-1.3164zm-3.5625 15.93-3.0117-1.7344c-0.63281-0.36328-1.4375-0.14844-1.8008 0.48438-0.36328 0.62891-0.14844 1.4336 0.48438 1.8008l3.0117 1.7344c0.20703 0.12109 0.43359 0.17578 0.65625 0.17578 0.45313 0 0.89844-0.23438 1.1406-0.66016 0.36328-0.62891 0.14844-1.4336-0.48438-1.8008zm-12.504-17.043c0 1.125-0.30469 2.2227-0.86328 3.1797 0.55078 0.82031 0.86328 1.8008 0.86328 2.8438 0 2.0938-1.2852 3.9453-3.1641 4.7188-0.46094 2.4727-2.3398 4.4805-4.8047 5.082-0.92969 1.5898-2.6484 2.6602-4.6172 2.6602-0.42578 0-0.83984-0.050781-1.2383-0.14844-0.61719-0.14844-1.168-0.4375-1.6211-0.83203-0.45312 0.39062-1 0.68359-1.6172 0.83203-0.39844 0.097656-0.81641 0.14844-1.2422 0.14844-1.9648 0-3.6836-1.0703-4.6133-2.6602-2.4648-0.60156-4.3477-2.6094-4.8086-5.082-1.8828-0.77344-3.1641-2.6211-3.1641-4.7188 0-1.043 0.31641-2.0273 0.86719-2.8438-0.5625-0.95703-0.86719-2.0547-0.86719-3.1797 0-2.2539 1.1914-4.2891 3.0977-5.4023 0.29297-2.6914 2.2539-4.9258 4.8789-5.5586 0.92578-1.5898 2.6445-2.6562 4.6133-2.6562 0.41797 0 0.83203 0.046875 1.2344 0.14062 0.62109 0.14844 1.1719 0.4375 1.6289 0.83203 0.45313-0.39453 1.0078-0.6875 1.6289-0.83203 0.40234-0.09375 0.81641-0.14062 1.2305-0.14062 1.9688 0 3.6875 1.0703 4.6172 2.6562 2.6211 0.63672 4.5781 2.8672 4.875 5.5586 1.9023 1.1133 3.0977 3.1523 3.0977 5.4023zm-16.762 14.613v-24.371c0-0.5625-0.36719-1.0312-0.91406-1.1602-0.20312-0.046875-0.41406-0.070313-0.62891-0.070313-1.4922 0-2.7031 1.2188-2.7031 2.7148 0 0.56641 0.17188 1.1094 0.5 1.5703 0.42188 0.59375 0.28125 1.4141-0.3125 1.8359s-1.4141 0.28125-1.8359-0.3125c-0.55078-0.77734-0.87891-1.6719-0.96094-2.6133-0.96094 0.69531-1.5781 1.8281-1.5781 3.0898 0 0.32813 0.039062 0.65625 0.12109 0.96875 0.18359 0.70313-0.24219 1.4219-0.94531 1.6055-0.10938 0.027344-0.22266 0.042969-0.32812 0.042969-0.35156 0-0.6875-0.14453-0.92969-0.39062-0.61328 0.65625-0.97266 1.5312-0.97266 2.4727 0 0.49219 0.10156 0.96875 0.28906 1.4141 0.29688-0.13672 0.60547-0.25391 0.92969-0.33594 0.70313-0.17578 1.4219 0.25391 1.5977 0.95703 0.17578 0.70312-0.25391 1.4219-0.95703 1.5977-1.0938 0.27344-1.8594 1.2578-1.8594 2.3906 0 0.65625 0.26172 1.2656 0.69531 1.7148 0.25391-0.58594 0.89844-0.91797 1.5352-0.75391 0.70312 0.18359 1.1289 0.89844 0.94531 1.6055-0.082032 0.3125-0.12109 0.64062-0.12109 0.97266 0 1.2617 0.61719 2.3906 1.582 3.0898 0.085938-0.9375 0.41016-1.832 0.95703-2.6094 0.41797-0.59375 1.2383-0.73828 1.8359-0.31641 0.59375 0.41797 0.73828 1.2383 0.31641 1.8359-0.32812 0.46484-0.50391 1.0117-0.50391 1.5781 0 1.4961 1.2148 2.7148 2.7031 2.7148 0.21484 0 0.42188-0.023438 0.61328-0.074219l0.015625-0.003906c0.55469-0.13281 0.91406-0.58594 0.91406-1.1602zm14.129-8.5898c0-1.1328-0.76562-2.1172-1.8594-2.3906-0.70703-0.17578-1.1367-0.89062-0.95703-1.5977 0.17578-0.70703 0.89062-1.1328 1.5977-0.95703 0.32422 0.082032 0.63672 0.19531 0.92969 0.33594 0.1875-0.44531 0.28906-0.92188 0.28906-1.4141 0-0.94141-0.35938-1.8164-0.97266-2.4727-0.24219 0.24219-0.57812 0.39062-0.92969 0.39062-0.10938 0-0.21875-0.015625-0.33203-0.042968-0.70312-0.18359-1.1289-0.89844-0.94531-1.6055 0.082032-0.3125 0.12109-0.63672 0.12109-0.96875 0-1.2617-0.61719-2.3906-1.5742-3.0898-0.085938 0.94531-0.41406 1.8398-0.96875 2.6133-0.42188 0.58984-1.2461 0.72656-1.8359 0.30469s-0.72656-1.2461-0.30469-1.8359c0.32813-0.45703 0.5-1 0.5-1.5664 0-1.4961-1.2148-2.7148-2.7109-2.7148-0.21484 0-0.42188 0.023438-0.62891 0.074219-0.54688 0.12891-0.91406 0.59375-0.91406 1.1562v24.371c0 0.57422 0.35938 1.0273 0.91797 1.1602l0.015625 0.003906c0.19531 0.050781 0.39453 0.074219 0.60938 0.074219 1.4922 0 2.7109-1.2188 2.7109-2.7148 0-0.56641-0.17578-1.1133-0.50391-1.5742-0.42188-0.59375-0.28125-1.4141 0.30859-1.8359 0.59375-0.42188 1.4141-0.28125 1.8359 0.30859 0.55469 0.77734 0.88281 1.6719 0.96484 2.6133 0.96094-0.69922 1.5742-1.8281 1.5742-3.0859 0-0.33594-0.039062-0.66016-0.12109-0.97266-0.18359-0.70312 0.24219-1.4219 0.94531-1.6055 0.63672-0.16406 1.2852 0.16797 1.5391 0.75391 0.43359-0.44922 0.69531-1.0547 0.69531-1.7148z"/>
<text x="0.0" y="117.5" font-size="5.0" font-weight="bold" font-family="Arbeit Regular, Helvetica, Arial-Unicode, Arial, Sans-serif" fill="#000000">Created by pojok_icon</text><text x="0.0" y="122.5" font-size="5.0" font-weight="bold" font-family="Arbeit Regular, Helvetica, Arial-Unicode, Arial, Sans-serif" fill="#000000">from Noun Project</text></svg>